<?xml version="1.0" encoding="iso-8859-1"?>
<!-- Generator: Adobe Illustrator 18.1.1, SVG Export Plug-In . SVG Version: 6.00 Build 0)  -->
<svg xmlns="http://www.w3.org/2000/svg" xmlns:xlink="http://www.w3.org/1999/xlink" version="1.1" id="Capa_1" x="0px" y="0px" viewBox="0 0 29.94 29.94" style="enable-background:new 0 0 29.94 29.94;" xml:space="preserve" width="40px" height="40px">
<g>
	<path d="M19.661,14.248c-1.25-0.737-2.643-1.176-4.175-1.317c-1.453-0.21-2.658-0.609-3.062-1.03   c-0.403-0.421-0.486-1.345-0.083-1.942s1.469-1.062,3.199-0.868c1.314,0.277,2.168,0.919,3.141,1.624c0,0,1.061,0.411,1.72-0.407   c0.783-1.076-0.019-1.892-0.019-1.892S19.62,7.492,18.693,7.14c-0.928-0.351-2.236-0.692-3.922-0.692   c-1.452,0-2.922,0.424-4.298,1.269c-1.376,0.846-2.45,2.134-2.45,3.531c0,1.544,1.046,2.633,2.257,3.264   c1.211,0.632,2.543,1.019,3.995,1.159c1.613,0.141,2.648,0.702,3.048,1.299s0.399,1.193,0,1.79s-1.351,1.033-2.965,1.033   c-1.937-0.14-3.487-0.963-4.294-1.806c0,0-0.847-0.907-1.901,0.019c-1.256,1.034-0.271,1.977-0.271,1.977   c0.808,0.701,1.622,1.373,2.752,1.794c1.13,0.421,2.538,0.823,4.226,0.823c1.775,0,3.33-0.647,4.666-1.56   c1.335-0.913,2.098-2.001,2.098-3.265C21.633,16.161,20.912,14.985,19.661,14.248z" fill="#FFFFFF"/>
	<path d="M27.56,0.684H2.383C1.065,0.684,0,1.748,0,3.064v23.813c0,1.312,1.065,2.379,2.383,2.379H27.56   c1.312,0,2.38-1.066,2.38-2.379V3.064C29.939,1.748,28.871,0.684,27.56,0.684z M25.609,14.444c0,6.094-5.032,11.172-11.127,11.172   c-0.537,0-1.768-0.276-1.768-0.276l-0.105,0.058c0,0-1.252,1.349-3.512,1.323c-3.911,0-6.991-3.563-6.991-7.475   c0-1.643,0.563-3.154,1.502-4.355l0.071-0.155c-0.002-0.096-0.004-0.193-0.004-0.291c0-6.094,4.713-10.943,10.807-10.943   c0.615,0,1.219,0.05,1.806,0.147l0.067,0.041c1.035-0.592,2.453-1.149,3.73-1.149c3.912,0,7.256,3.299,7.256,7.21   c0,1.643-0.86,3.154-1.799,4.356C25.543,14.105,25.609,14.289,25.609,14.444z" fill="#FFFFFF"/>
	<g>
	</g>
	<g>
	</g>
	<g>
	</g>
	<g>
	</g>
	<g>
	</g>
	<g>
	</g>
	<g>
	</g>
	<g>
	</g>
	<g>
	</g>
	<g>
	</g>
	<g>
	</g>
	<g>
	</g>
	<g>
	</g>
	<g>
	</g>
	<g>
	</g>
</g>
<g>
</g>
<g>
</g>
<g>
</g>
<g>
</g>
<g>
</g>
<g>
</g>
<g>
</g>
<g>
</g>
<g>
</g>
<g>
</g>
<g>
</g>
<g>
</g>
<g>
</g>
<g>
</g>
<g>
</g>
</svg>
